<?xml version="1.0" encoding="UTF-8"?>
<svg id="Camada_1" xmlns="http://www.w3.org/2000/svg" version="1.1" viewBox="0 0 1400 790">
  <!-- Generator: Adobe Illustrator 29.5.0, SVG Export Plug-In . SVG Version: 2.1.0 Build 137)  -->
  <defs>
    <style>
      .st0 {
        fill: #fff;
      }

      .st1 {
        fill: #0f0f0f;
      }

      .st2 {
        display: none;
      }
    </style>
  </defs>
  <g class="st2">
    <path class="st1" d="M639.59,502.13h-3.9c-.29-6.07-5.16-9.4-11.23-9.4-5.56,0-10.2,2.29-10.2,8.13,0,4.24,3.44,5.56,5.73,6.13l9.97,2.46c7.91,1.95,11.06,5.44,11.06,10.89,0,4.01-2.18,11.69-15.64,11.69-10.08,0-16.33-4.64-16.33-13.29v-1.03h3.89v.35c0,7.5,5.1,10.65,13.23,10.65,4.64,0,10.94-2.46,10.94-8.31,0-3.72-2.86-6.01-8.19-7.33l-9.34-2.29c-6.07-1.49-9.22-4.35-9.22-9.85,0-4.64,3.21-11.51,14.04-11.51,8.65,0,15.18,4.64,15.18,12.72Z"/>
    <path class="st1" d="M652.02,501.62h6.01v3.03h-6.01v20.17c0,2.58.74,3.67,3.32,3.67.63,0,1.66-.06,2.69-.17v3.09c-1.37.06-2.06.11-3.21.11-4.75,0-6.42-1.6-6.42-6.41v-20.45h-5.16v-3.03h5.16v-8.88h3.61v8.88Z"/>
    <path class="st1" d="M666.8,520.12c0,5.16,1.43,8.88,7.85,8.88s8.94-5.73,8.94-11.92v-15.47h3.61v29.56h-3.32v-5.33h-.12c-1.89,3.9-5.67,6.19-10.2,6.19-7.45,0-10.37-4.24-10.37-11.23v-19.19h3.61v18.5Z"/>
    <path class="st1" d="M720.02,531.18h-3.32v-5.62h-.11c-1.66,4.07-6.36,6.48-10.54,6.48-8.77,0-13.29-6.88-13.29-15.64s4.35-15.64,13.29-15.64c4.47,0,8.82,2.35,10.25,6.47h.11v-16.96h3.61v40.9ZM706.04,529c7.16,0,10.37-5.84,10.37-12.6s-2.98-12.6-10.37-12.6c-6.82,0-9.68,6.36-9.68,12.6s2.98,12.6,9.68,12.6Z"/>
    <path class="st1" d="M730.56,496.06h-3.61v-5.79h3.61v5.79ZM730.56,531.18h-3.61v-29.56h3.61v29.56Z"/>
    <path class="st1" d="M763.96,516.4c0,8.65-5.1,15.64-13.98,15.64s-13.98-7.05-13.98-15.64,5.1-15.64,13.98-15.64,13.98,7.16,13.98,15.64ZM749.98,529c6.82,0,10.37-6.3,10.37-12.6s-3.44-12.6-10.43-12.6-10.31,6.13-10.31,12.6,3.67,12.6,10.37,12.6Z"/>
  </g>
  <g>
    <path class="st0" d="M942.38,327.32c-8.18,0-13.5,5.59-13.5,14.39s5.32,14.31,13.5,14.31,13.62-5.75,13.62-14.27-5.4-14.43-13.62-14.43ZM942.46,354.02c-7.14,0-11.34-4.71-11.34-12.27s4.05-12.42,11.26-12.42,11.34,4.82,11.34,12.42-4.16,12.27-11.26,12.27Z"/>
    <path class="st0" d="M950.41,344.22c-.89,4.59-3.67,6.48-7.72,6.48-5.25,0-8.45-3.59-8.45-9.03s3.28-9.14,8.45-9.14c3.63,0,6.6,1.54,7.52,6.05.04.16-.07.31-.23.31h-2.47c-.15,0-.34-.11-.38-.31-.5-2.35-2.16-3.51-4.48-3.51-3.32,0-5.17,2.51-5.17,6.56,0,4.25,1.89,6.6,5.13,6.6,2.59,0,4.21-1.43,4.63-4.01.04-.2.2-.31.35-.31h2.55c.15,0,.27.15.27.31Z"/>
  </g>
  <g>
    <path class="st0" d="M516.11,460.09c-.76,0-1.51-.75-1.51-1.51l.22-6.92c.05-1.55-1.84-2.26-2.87-1.11-6.53,7.27-15.62,11.43-26.8,11.43-27,0-41.15-21.9-41.15-50.21s15.48-50.78,41.53-50.78c10.96,0,19.86,3.58,26.34,10.5,1.06,1.13,2.93.38,2.85-1.17l-.31-5.93c0-.75.76-1.51,1.51-1.51h20.01c.75,0,1.51.76,1.51,1.51l-.57,46.82.57,47.38c0,.76-.76,1.51-1.51,1.51h-19.82ZM491.19,445.93c15.29,0,24.16-11.32,24.35-33.79.19-22.46-8.5-34.92-23.79-35.11-16.61-.19-24.73,12.46-24.73,33.22,0,22.65,8.31,35.68,24.16,35.68Z"/>
    <path class="st0" d="M549.14,460.09c-.76,0-1.51-.75-1.51-1.51l.57-47.57-.57-46.63c0-.75.76-1.51,1.51-1.51h19.63c.76,0,1.51.76,1.51,1.51l-.37,10.1c-.06,1.58,1.89,2.28,2.91,1.07,7.45-8.87,18.71-13.43,30.68-13.43,1.89,0,3.59.19,5.1.38.75.19,1.51,1.13,1.51,1.89v14.73c0,.75-.76,1.32-1.51,1.32-1.32-.19-3.02-.19-4.53-.19-18.31,0-33.04,10.57-33.79,32.66l.19,45.68c0,.76-.76,1.51-1.51,1.51h-19.82Z"/>
    <path class="st0" d="M679.21,460.09c-.75,0-1.51-.75-1.51-1.51l.57-11.89c-6.61,9.63-16.8,15.29-29.83,15.29-27,0-41.15-21.9-41.15-50.21s15.48-50.78,41.53-50.78c10.93,0,19.74,3.67,26.2,10.51,1.03,1.1,2.86.4,2.85-1.11l-.17-40.93c0-.75.76-1.51,1.51-1.51h20.01c.75,0,1.51.76,1.51,1.51l-.38,61.35.38,67.77c0,.76-.76,1.51-1.51,1.51h-20.01ZM654.48,446.12c15.29,0,24.16-11.33,24.35-33.79.19-22.65-8.5-35.3-23.79-35.49-16.61-.38-24.73,12.65-24.73,33.6,0,22.46,8.31,35.68,24.16,35.68Z"/>
    <path class="st0" d="M713.18,352.86c-.76,0-1.51-.76-1.51-1.51v-19.44c0-.75.76-1.51,1.51-1.51h20.01c.76,0,1.51.76,1.51,1.51v19.44c0,.75-.75,1.51-1.51,1.51h-20.01ZM713.18,460.09c-.76,0-1.51-.75-1.51-1.51l.38-47.76-.38-46.44c0-.75.76-1.51,1.51-1.51h20.2c.76,0,1.51.76,1.51,1.51l-.57,46.44.57,47.76c0,.76-.76,1.51-1.51,1.51h-20.2Z"/>
    <path class="st0" d="M797.75,461.97c-12.84,0-22.84-4.91-29.45-14.35l.57,10.95c0,.76-.76,1.51-1.51,1.51h-20.01c-.76,0-1.51-.75-1.51-1.51l.57-67.39-.57-61.73c0-.75.76-1.51,1.51-1.51h20.01c.76,0,1.51.76,1.51,1.51l-.17,41.49c0,1.51,1.82,2.2,2.85,1.1,6.59-7.09,15.45-11.07,26.58-11.07,27,0,41.15,21.9,41.15,50.21s-15.48,50.78-41.53,50.78ZM791.52,445.55c16.61.38,24.54-12.65,24.54-33.22,0-22.09-8.12-35.11-23.97-34.92-15.29,0-24.16,11.14-24.35,33.04-.19,22.46,8.5,34.92,23.79,35.11Z"/>
    <path class="st0" d="M885.15,490.67c-.38.94-1.13,1.51-2.08,1.51h-18.5c-.76,0-1.32-.76-.94-1.51l10-29.44c.13-.37.12-.78-.03-1.14l-38.29-95.9c-.19-.56.19-1.32.95-1.32h22.46c.94,0,1.7.57,2.08,1.51l22.67,62.39c.54,1.49,2.66,1.43,3.13-.08l19.13-62.31c.19-.94.94-1.51,1.89-1.51h20.2c.76,0,1.32.76.94,1.51l-43.61,126.29Z"/>
  </g>
</svg>