<?xml version="1.0" encoding="UTF-8"?>
<svg id="Camada_1" xmlns="http://www.w3.org/2000/svg" version="1.1" viewBox="0 0 1400 790">
  <!-- Generator: Adobe Illustrator 29.6.0, SVG Export Plug-In . SVG Version: 2.1.1 Build 207)  -->
  <defs>
    <style>
      .st0 {
        fill: #fff;
      }

      .st1 {
        display: none;
      }
    </style>
  </defs>
  <g class="st1">
    <path class="st0" d="M942.38,327.32c-8.18,0-13.5,5.59-13.5,14.39s5.32,14.31,13.5,14.31,13.62-5.75,13.62-14.27-5.4-14.43-13.62-14.43ZM942.46,354.02c-7.14,0-11.34-4.71-11.34-12.27s4.05-12.42,11.26-12.42,11.34,4.82,11.34,12.42-4.16,12.27-11.26,12.27Z"/>
    <path class="st0" d="M950.41,344.22c-.89,4.59-3.67,6.48-7.72,6.48-5.25,0-8.45-3.59-8.45-9.03s3.28-9.14,8.45-9.14c3.63,0,6.6,1.54,7.52,6.05.04.16-.07.31-.23.31h-2.47c-.15,0-.34-.11-.38-.31-.5-2.35-2.16-3.51-4.48-3.51-3.32,0-5.17,2.51-5.17,6.56,0,4.25,1.89,6.6,5.13,6.6,2.59,0,4.21-1.43,4.63-4.01.04-.2.2-.31.35-.31h2.55c.15,0,.27.15.27.31Z"/>
  </g>
  <g>
    <path class="st0" d="M208.22,554.5c-2.18,0-4.36-2.18-4.36-4.36l.63-19.99c.14-4.47-5.3-6.54-8.29-3.22-18.85,20.98-45.1,33.02-77.38,33.02C40.88,559.95,0,496.72,0,414.97s44.7-146.62,119.91-146.62c31.65,0,57.33,10.33,76.04,30.31,3.06,3.27,8.47,1.11,8.24-3.37l-.88-17.13c0-2.18,2.18-4.36,4.36-4.36h57.78c2.18,0,4.36,2.19,4.36,4.36l-1.63,135.18,1.63,136.81c0,2.19-2.18,4.36-4.36,4.36h-57.23ZM136.27,513.62c44.15,0,69.77-32.7,70.31-97.57.54-64.86-24.53-100.84-68.68-101.38-47.96-.55-71.4,35.97-71.4,95.93,0,65.41,23.98,103.02,69.77,103.02Z"/>
    <path class="st0" d="M303.58,554.5c-2.18,0-4.36-2.18-4.36-4.36l1.64-137.35-1.64-134.64c0-2.18,2.18-4.36,4.36-4.36h56.68c2.18,0,4.36,2.19,4.36,4.36l-1.07,29.15c-.17,4.57,5.46,6.58,8.4,3.08,21.52-25.61,54.03-38.77,88.6-38.77,5.45,0,10.36.54,14.72,1.09,2.18.55,4.36,3.27,4.36,5.45v42.52c0,2.18-2.18,3.81-4.36,3.81-3.82-.55-8.72-.55-13.09-.55-52.87,0-95.39,30.52-97.57,94.3l.54,131.9c0,2.19-2.18,4.36-4.36,4.36h-57.23Z"/>
    <path class="st0" d="M679.12,554.5c-2.18,0-4.36-2.18-4.36-4.36l1.63-34.34c-19.07,27.8-48.51,44.15-86.12,44.15-77.95,0-118.83-63.23-118.83-144.99s44.7-146.62,119.91-146.62c31.56,0,57.01,10.58,75.65,30.34,2.99,3.17,8.25,1.15,8.23-3.2l-.49-118.17c0-2.18,2.18-4.36,4.36-4.36h57.78c2.18,0,4.36,2.19,4.36,4.36l-1.09,177.15,1.09,195.68c0,2.19-2.18,4.36-4.36,4.36h-57.78ZM607.72,514.17c44.15,0,69.77-32.71,70.31-97.57.54-65.41-24.53-101.93-68.68-102.48-47.96-1.09-71.4,36.52-71.4,97.03,0,64.86,23.98,103.02,69.77,103.02Z"/>
    <path class="st0" d="M777.22,244.91c-2.18,0-4.36-2.19-4.36-4.36v-56.14c0-2.18,2.18-4.36,4.36-4.36h57.78c2.18,0,4.36,2.19,4.36,4.36v56.14c0,2.18-2.18,4.36-4.36,4.36h-57.78ZM777.22,554.5c-2.18,0-4.36-2.18-4.36-4.36l1.09-137.9-1.09-134.09c0-2.18,2.18-4.36,4.36-4.36h58.32c2.18,0,4.36,2.19,4.36,4.36l-1.64,134.09,1.64,137.9c0,2.19-2.18,4.36-4.36,4.36h-58.32Z"/>
    <path class="st0" d="M1021.4,559.95c-37.07,0-65.95-14.17-85.03-41.42l1.64,31.61c0,2.19-2.18,4.36-4.36,4.36h-57.78c-2.18,0-4.36-2.18-4.36-4.36l1.64-194.58-1.64-178.24c0-2.18,2.18-4.36,4.36-4.36h57.78c2.18,0,4.36,2.19,4.36,4.36l-.49,119.81c-.02,4.35,5.26,6.36,8.22,3.17,19.03-20.47,44.62-31.95,76.76-31.95,77.95,0,118.83,63.23,118.83,144.99s-44.7,146.62-119.91,146.62ZM1003.41,512.53c47.96,1.09,70.86-36.52,70.86-95.93,0-63.77-23.44-101.39-69.22-100.84-44.15,0-69.77,32.16-70.32,95.39-.54,64.86,24.53,100.83,68.68,101.38Z"/>
    <path class="st0" d="M1273.74,642.81c-1.09,2.72-3.27,4.36-5.99,4.36h-53.42c-2.18,0-3.81-2.19-2.72-4.36l28.87-85c.36-1.07.33-2.24-.09-3.3l-110.54-276.9c-.54-1.63.55-3.81,2.73-3.81h64.86c2.72,0,4.91,1.64,5.99,4.36l65.46,180.13c1.56,4.3,7.69,4.14,9.03-.23l55.24-179.9c.54-2.72,2.72-4.36,5.45-4.36h58.32c2.18,0,3.81,2.19,2.72,4.36l-125.91,364.65Z"/>
  </g>
</svg>