<?xml version="1.0" encoding="UTF-8"?>
<svg id="Camada_1" xmlns="http://www.w3.org/2000/svg" version="1.1" viewBox="0 0 1400 790">
  <!-- Generator: Adobe Illustrator 29.5.1, SVG Export Plug-In . SVG Version: 2.1.0 Build 141)  -->
  <defs>
    <style>
      .st0 {
        fill: #fff;
      }

      .st1 {
        fill: #0f0f0f;
      }

      .st2 {
        display: none;
      }
    </style>
  </defs>
  <g class="st2">
    <path class="st1" d="M639.59,502.13h-3.9c-.29-6.07-5.16-9.4-11.23-9.4-5.56,0-10.2,2.29-10.2,8.13,0,4.24,3.44,5.56,5.73,6.13l9.97,2.46c7.91,1.95,11.06,5.44,11.06,10.89,0,4.01-2.18,11.69-15.64,11.69-10.08,0-16.33-4.64-16.33-13.29v-1.03h3.89v.35c0,7.5,5.1,10.65,13.23,10.65,4.64,0,10.94-2.46,10.94-8.31,0-3.72-2.86-6.01-8.19-7.33l-9.34-2.29c-6.07-1.49-9.22-4.35-9.22-9.85,0-4.64,3.21-11.51,14.04-11.51,8.65,0,15.18,4.64,15.18,12.72h.01Z"/>
    <path class="st1" d="M652.02,501.62h6.01v3.03h-6.01v20.17c0,2.58.74,3.67,3.32,3.67.63,0,1.66-.06,2.69-.17v3.09c-1.37.06-2.06.11-3.21.11-4.75,0-6.42-1.6-6.42-6.41v-20.45h-5.16v-3.03h5.16v-8.88h3.61v8.88h.01Z"/>
    <path class="st1" d="M666.8,520.12c0,5.16,1.43,8.88,7.85,8.88s8.94-5.73,8.94-11.92v-15.47h3.61v29.56h-3.32v-5.33h-.12c-1.89,3.9-5.67,6.19-10.2,6.19-7.45,0-10.37-4.24-10.37-11.23v-19.19h3.61v18.5h0Z"/>
    <path class="st1" d="M720.02,531.18h-3.32v-5.62h-.11c-1.66,4.07-6.36,6.48-10.54,6.48-8.77,0-13.29-6.88-13.29-15.64s4.35-15.64,13.29-15.64c4.47,0,8.82,2.35,10.25,6.47h.11v-16.96h3.61v40.9h0ZM706.04,529c7.16,0,10.37-5.84,10.37-12.6s-2.98-12.6-10.37-12.6c-6.82,0-9.68,6.36-9.68,12.6s2.98,12.6,9.68,12.6Z"/>
    <path class="st1" d="M730.56,496.06h-3.61v-5.79h3.61v5.79ZM730.56,531.18h-3.61v-29.56h3.61v29.56Z"/>
    <path class="st1" d="M763.96,516.4c0,8.65-5.1,15.64-13.98,15.64s-13.98-7.05-13.98-15.64,5.1-15.64,13.98-15.64,13.98,7.16,13.98,15.64ZM749.98,529c6.82,0,10.37-6.3,10.37-12.6s-3.44-12.6-10.43-12.6-10.31,6.13-10.31,12.6,3.67,12.6,10.37,12.6Z"/>
  </g>
  <g>
    <path class="st0" d="M1362.76,184.36c-22.37,0-36.91,15.29-36.91,39.35s14.55,39.13,36.91,39.13,37.24-15.72,37.24-39.02-14.77-39.46-37.24-39.46h0ZM1362.98,257.36c-19.52,0-31.01-12.88-31.01-33.55s11.07-33.96,30.79-33.96,31.01,13.18,31.01,33.96-11.37,33.55-30.79,33.55Z"/>
    <path class="st0" d="M1384.71,230.57c-2.43,12.55-10.04,17.72-21.11,17.72-14.36,0-23.11-9.82-23.11-24.69s8.97-24.99,23.11-24.99c9.93,0,18.05,4.21,20.56,16.54.11.44-.19.85-.63.85h-6.75c-.41,0-.93-.3-1.04-.85-1.37-6.43-5.91-9.6-12.25-9.6-9.08,0-14.14,6.86-14.14,17.94,0,11.62,5.17,18.05,14.03,18.05,7.08,0,11.51-3.91,12.66-10.96.11-.55.55-.85.96-.85h6.97c.41,0,.74.41.74.85h0Z"/>
  </g>
  <g>
    <path class="st0" d="M197.18,547.4c-2.08,0-4.13-2.05-4.13-4.13l.6-18.92c.14-4.24-5.03-6.18-7.85-3.04-17.86,19.88-42.71,31.25-73.28,31.25C38.69,552.57,0,492.68,0,415.27s42.33-138.85,113.56-138.85c29.97,0,54.3,9.79,72.02,28.71,2.9,3.09,8.01,1.04,7.79-3.2l-.85-16.21c0-2.05,2.08-4.13,4.13-4.13h54.71c2.05,0,4.13,2.08,4.13,4.13l-1.56,128.02,1.56,129.55c0,2.08-2.08,4.13-4.13,4.13h-54.2v-.03ZM129.04,508.68c41.81,0,66.06-30.95,66.58-92.39.52-61.41-23.24-95.48-65.05-96-45.42-.52-67.62,34.07-67.62,90.84,0,61.93,22.72,97.56,66.06,97.56h.03Z"/>
    <path class="st0" d="M287.49,547.4c-2.08,0-4.13-2.05-4.13-4.13l1.56-130.07-1.56-127.5c0-2.05,2.08-4.13,4.13-4.13h53.68c2.08,0,4.13,2.08,4.13,4.13l-1.01,27.62c-.16,4.32,5.17,6.23,7.96,2.93,20.37-24.25,51.16-36.72,83.89-36.72,5.17,0,9.82.52,13.95,1.04,2.05.52,4.13,3.09,4.13,5.17v40.28c0,2.05-2.08,3.61-4.13,3.61-3.61-.52-8.26-.52-12.39-.52-50.07,0-90.34,28.9-92.39,89.3l.52,124.91c0,2.08-2.08,4.13-4.13,4.13h-54.2v-.03Z"/>
    <path class="st0" d="M643.15,547.4c-2.05,0-4.13-2.05-4.13-4.13l1.56-32.51c-18.07,26.33-45.94,41.81-81.57,41.81-73.83,0-112.52-59.88-112.52-137.29s42.33-138.85,113.56-138.85c29.89,0,53.98,10.04,71.64,28.74,2.82,3.01,7.82,1.09,7.79-3.04l-.46-111.92c0-2.05,2.08-4.13,4.13-4.13h54.71c2.05,0,4.13,2.08,4.13,4.13l-1.04,167.75,1.04,185.31c0,2.08-2.08,4.13-4.13,4.13h-54.71,0ZM575.53,509.2c41.81,0,66.06-30.98,66.58-92.39.52-61.93-23.24-96.52-65.05-97.04-45.42-1.04-67.62,34.59-67.62,91.88,0,61.41,22.72,97.56,66.06,97.56h.03Z"/>
    <path class="st0" d="M736.04,254.19c-2.08,0-4.13-2.08-4.13-4.13v-53.16c0-2.05,2.08-4.13,4.13-4.13h54.71c2.08,0,4.13,2.08,4.13,4.13v53.16c0,2.05-2.05,4.13-4.13,4.13h-54.71ZM736.04,547.4c-2.08,0-4.13-2.05-4.13-4.13l1.04-130.59-1.04-126.98c0-2.05,2.08-4.13,4.13-4.13h55.23c2.08,0,4.13,2.08,4.13,4.13l-1.56,126.98,1.56,130.59c0,2.08-2.08,4.13-4.13,4.13h-55.23Z"/>
    <path class="st0" d="M967.29,552.54c-35.11,0-62.45-13.43-80.53-39.24l1.56,29.94c0,2.08-2.08,4.13-4.13,4.13h-54.71c-2.08,0-4.13-2.05-4.13-4.13l1.56-184.27-1.56-168.79c0-2.05,2.08-4.13,4.13-4.13h54.71c2.08,0,4.13,2.08,4.13,4.13l-.46,113.45c0,4.13,4.98,6.02,7.79,3.01,18.02-19.39,42.25-30.27,72.68-30.27,73.83,0,112.52,59.88,112.52,137.29s-42.33,138.85-113.56,138.85v.03ZM950.25,507.64c45.42,1.04,67.1-34.59,67.1-90.84,0-60.4-22.2-96-65.54-95.48-41.81,0-66.06,30.46-66.58,90.34-.52,61.41,23.24,95.48,65.05,96l-.03-.03Z"/>
    <path class="st0" d="M1206.27,631.02c-1.04,2.57-3.09,4.13-5.69,4.13h-50.59c-2.08,0-3.61-2.08-2.57-4.13l27.34-80.5c.36-1.01.33-2.13-.08-3.12l-104.7-262.23c-.52-1.53.52-3.61,2.6-3.61h61.41c2.57,0,4.65,1.56,5.69,4.13l61.99,170.6c1.48,4.07,7.27,3.91,8.56-.22l52.31-170.38c.52-2.57,2.57-4.13,5.17-4.13h55.23c2.08,0,3.61,2.08,2.57,4.13l-119.25,345.32h0Z"/>
  </g>
</svg>