<svg xmlns="http://www.w3.org/2000/svg" xmlns:xlink="http://www.w3.org/1999/xlink" width="1400" zoomAndPan="magnify" viewBox="0 0 1050 592.499982" height="790" preserveAspectRatio="xMidYMid meet" version="1.0"><path fill="#ffffff" d="M 990.601562 166.136719 C 974.882812 166.136719 964.660156 176.882812 964.660156 193.792969 C 964.660156 210.707031 974.882812 221.292969 990.601562 221.292969 C 1006.316406 221.292969 1016.769531 210.242188 1016.769531 193.871094 C 1016.769531 177.496094 1006.394531 166.140625 990.601562 166.140625 Z M 990.753906 217.449219 C 977.035156 217.449219 968.964844 208.398438 968.964844 193.871094 C 968.964844 179.339844 976.746094 170 990.601562 170 C 1004.453125 170 1012.390625 179.265625 1012.390625 193.871094 C 1012.390625 208.476562 1004.394531 217.449219 990.753906 217.449219 Z M 990.753906 217.449219 " fill-opacity="1" fill-rule="nonzero"/><path fill="#ffffff" d="M 1006.027344 198.617188 C 1004.320312 207.4375 998.976562 211.070312 991.195312 211.070312 C 981.109375 211.070312 974.960938 204.171875 974.960938 193.714844 C 974.960938 183.261719 981.261719 176.152344 991.195312 176.152344 C 998.171875 176.152344 1003.875 179.109375 1005.644531 187.777344 C 1005.722656 188.085938 1005.511719 188.375 1005.203125 188.375 L 1000.457031 188.375 C 1000.167969 188.375 999.804688 188.164062 999.726562 187.777344 C 998.765625 183.261719 995.578125 181.03125 991.121094 181.03125 C 984.738281 181.03125 981.1875 185.855469 981.1875 193.640625 C 981.1875 201.808594 984.816406 206.324219 991.042969 206.324219 C 996.019531 206.324219 999.132812 203.574219 999.9375 198.617188 C 1000.015625 198.234375 1000.324219 198.019531 1000.609375 198.019531 L 1005.511719 198.019531 C 1005.796875 198.019531 1006.027344 198.308594 1006.027344 198.617188 Z M 1006.027344 198.617188 " fill-opacity="1" fill-rule="nonzero"/><path fill="#ffffff" d="M 171.574219 421.296875 C 170.113281 421.296875 168.671875 419.855469 168.671875 418.394531 L 169.09375 405.09375 C 169.191406 402.117188 165.558594 400.75 163.582031 402.960938 C 151.035156 416.933594 133.570312 424.925781 112.089844 424.925781 C 60.210938 424.925781 33.023438 382.839844 33.023438 328.433594 C 33.023438 274.027344 62.765625 230.84375 112.820312 230.84375 C 133.875 230.84375 150.976562 237.726562 163.425781 251.023438 C 165.464844 253.195312 169.058594 251.753906 168.902344 248.777344 L 168.308594 237.378906 C 168.308594 235.9375 169.769531 234.476562 171.210938 234.476562 L 209.65625 234.476562 C 211.097656 234.476562 212.558594 235.9375 212.558594 237.378906 L 211.460938 327.359375 L 212.558594 418.414062 C 212.558594 419.875 211.097656 421.316406 209.65625 421.316406 L 171.574219 421.316406 Z M 123.695312 394.082031 C 153.070312 394.082031 170.113281 372.328125 170.480469 329.144531 C 170.84375 285.980469 154.148438 262.035156 124.769531 261.671875 C 92.855469 261.304688 77.253906 285.617188 77.253906 325.511719 C 77.253906 369.042969 93.21875 394.082031 123.675781 394.082031 Z M 123.695312 394.082031 " fill-opacity="1" fill-rule="nonzero"/><path fill="#ffffff" d="M 235.039062 421.296875 C 233.578125 421.296875 232.136719 419.855469 232.136719 418.394531 L 233.230469 326.972656 L 232.136719 237.359375 C 232.136719 235.917969 233.597656 234.457031 235.039062 234.457031 L 272.753906 234.457031 C 274.214844 234.457031 275.65625 235.917969 275.65625 237.359375 L 274.945312 256.769531 C 274.828125 259.808594 278.574219 261.152344 280.535156 258.828125 C 294.851562 241.78125 316.484375 233.015625 339.484375 233.015625 C 343.113281 233.015625 346.382812 233.382812 349.28125 233.746094 C 350.722656 234.113281 352.183594 235.917969 352.183594 237.378906 L 352.183594 265.6875 C 352.183594 267.128906 350.722656 268.222656 349.28125 268.222656 C 346.746094 267.859375 343.480469 267.859375 340.578125 267.859375 C 305.398438 267.859375 277.097656 288.171875 275.65625 330.625 L 276.019531 418.414062 C 276.019531 419.875 274.558594 421.316406 273.117188 421.316406 L 235.039062 421.316406 Z M 235.039062 421.296875 " fill-opacity="1" fill-rule="nonzero"/><path fill="#ffffff" d="M 484.949219 421.296875 C 483.511719 421.296875 482.050781 419.855469 482.050781 418.394531 L 483.144531 395.542969 C 470.445312 414.050781 450.867188 424.925781 425.832031 424.925781 C 373.953125 424.925781 346.765625 382.839844 346.765625 328.433594 C 346.765625 274.027344 376.507812 230.84375 426.558594 230.84375 C 447.5625 230.84375 464.488281 237.898438 476.902344 251.042969 C 478.878906 253.15625 482.394531 251.8125 482.375 248.910156 L 482.050781 170.25 C 482.050781 168.808594 483.511719 167.347656 484.949219 167.347656 L 523.398438 167.347656 C 524.839844 167.347656 526.300781 168.808594 526.300781 170.25 L 525.570312 288.152344 L 526.300781 418.394531 C 526.300781 419.855469 524.839844 421.296875 523.398438 421.296875 Z M 437.433594 394.449219 C 466.8125 394.449219 483.855469 372.675781 484.222656 329.511719 C 484.585938 285.980469 467.890625 261.671875 438.511719 261.304688 C 406.597656 260.574219 390.996094 285.617188 390.996094 325.878906 C 390.996094 369.042969 406.960938 394.449219 437.417969 394.449219 Z M 437.433594 394.449219 " fill-opacity="1" fill-rule="nonzero"/><path fill="#ffffff" d="M 550.21875 215.222656 C 548.761719 215.222656 547.320312 213.761719 547.320312 212.320312 L 547.320312 174.960938 C 547.320312 173.519531 548.777344 172.058594 550.21875 172.058594 L 588.667969 172.058594 C 590.128906 172.058594 591.570312 173.519531 591.570312 174.960938 L 591.570312 212.320312 C 591.570312 213.761719 590.128906 215.222656 588.667969 215.222656 Z M 550.21875 421.296875 C 548.761719 421.296875 547.320312 419.855469 547.320312 418.394531 L 548.050781 326.609375 L 547.320312 237.359375 C 547.320312 235.917969 548.777344 234.457031 550.21875 234.457031 L 589.03125 234.457031 C 590.492188 234.457031 591.933594 235.917969 591.933594 237.359375 L 590.839844 326.609375 L 591.933594 418.394531 C 591.933594 419.855469 590.472656 421.296875 589.03125 421.296875 Z M 550.21875 421.296875 " fill-opacity="1" fill-rule="nonzero"/><path fill="#ffffff" d="M 712.710938 424.910156 C 688.039062 424.910156 668.828125 415.472656 656.125 397.332031 L 657.222656 418.375 C 657.222656 419.835938 655.761719 421.277344 654.320312 421.277344 L 615.875 421.277344 C 614.414062 421.277344 612.972656 419.835938 612.972656 418.375 L 614.066406 288.863281 L 612.972656 170.230469 C 612.972656 168.789062 614.433594 167.328125 615.875 167.328125 L 654.320312 167.328125 C 655.78125 167.328125 657.222656 168.789062 657.222656 170.230469 L 656.894531 249.96875 C 656.894531 252.871094 660.390625 254.195312 662.371094 252.082031 C 675.03125 238.457031 692.054688 230.808594 713.441406 230.808594 C 765.320312 230.808594 792.507812 272.894531 792.507812 327.300781 C 792.507812 381.707031 762.761719 424.890625 712.710938 424.890625 Z M 700.742188 393.351562 C 732.65625 394.082031 747.890625 369.042969 747.890625 329.511719 C 747.890625 287.058594 732.289062 262.035156 701.835938 262.402344 C 672.457031 262.402344 655.414062 283.808594 655.050781 325.898438 C 654.6875 369.0625 671.382812 393.007812 700.761719 393.371094 Z M 700.742188 393.351562 " fill-opacity="1" fill-rule="nonzero"/><path fill="#ffffff" d="M 880.640625 480.0625 C 879.910156 481.871094 878.46875 482.964844 876.644531 482.964844 L 841.097656 482.964844 C 839.636719 482.964844 838.5625 481.503906 839.292969 480.0625 L 858.503906 423.484375 C 858.753906 422.773438 858.734375 421.988281 858.449219 421.296875 L 784.878906 236.996094 C 784.511719 235.917969 785.242188 234.457031 786.703125 234.457031 L 829.859375 234.457031 C 831.664062 234.457031 833.125 235.554688 833.855469 237.359375 L 877.410156 357.261719 C 878.449219 360.125 882.523438 360.007812 883.425781 357.109375 L 920.183594 237.359375 C 920.546875 235.554688 921.988281 234.457031 923.8125 234.457031 L 962.625 234.457031 C 964.085938 234.457031 965.160156 235.917969 964.429688 237.359375 Z M 880.640625 480.0625 " fill-opacity="1" fill-rule="nonzero"/></svg>